<?xml version="1.0" encoding="UTF-8"?>
<!DOCTYPE svg PUBLIC "-//W3C//DTD SVG 1.1//EN" "http://www.w3.org/Graphics/SVG/1.1/DTD/svg11.dtd">
<svg xmlns="http://www.w3.org/2000/svg" xmlns:xlink="http://www.w3.org/1999/xlink" version="1.1" width="481px" height="401px" viewBox="-0.5 -0.5 481 401" style="background-color: rgb(255, 255, 255);"><defs/><g><rect x="50" y="40" width="80" height="40" fill="#cccccc" stroke="none" pointer-events="none"/><rect x="50" y="80" width="80" height="60" fill="#fff2cc" stroke="none" pointer-events="none"/><rect x="130" y="80" width="40" height="60" fill="#f5f5f5" stroke="none" pointer-events="none"/><rect x="130" y="40" width="40" height="40" fill="#e1d5e7" stroke="none" pointer-events="none"/><rect x="100" y="90" width="10" height="10" fill="rgb(255, 255, 255)" stroke="#999999" pointer-events="none"/><rect x="100" y="100" width="10" height="10" fill="rgb(255, 255, 255)" stroke="#999999" pointer-events="none"/><rect x="100" y="110" width="10" height="10" fill="rgb(255, 255, 255)" stroke="#999999" pointer-events="none"/><rect x="100" y="120" width="10" height="10" fill="rgb(255, 255, 255)" stroke="#999999" pointer-events="none"/><path d="M 149.81 130 L 149.81 90" fill="none" stroke="#999999" stroke-miterlimit="10" stroke-dasharray="3 3" pointer-events="none"/><path d="M 120 59.81 L 60 59.81" fill="none" stroke="#999999" stroke-miterlimit="10" stroke-dasharray="3 3" pointer-events="none"/><path d="M 140 60 L 160 60" fill="none" stroke="#999999" stroke-miterlimit="10" pointer-events="none"/><path d="M 150 50 L 150 70" fill="none" stroke="#999999" stroke-miterlimit="10" pointer-events="none"/><rect x="50" y="40" width="120" height="100" fill="none" stroke="#999999" pointer-events="none"/><rect x="50" y="150" width="80" height="40" fill="#cccccc" stroke="none" pointer-events="none"/><rect x="50" y="190" width="80" height="60" fill="#fff2cc" stroke="none" pointer-events="none"/><rect x="130" y="190" width="40" height="60" fill="#f5f5f5" stroke="none" pointer-events="none"/><rect x="130" y="150" width="40" height="40" fill="#e1d5e7" stroke="none" pointer-events="none"/><rect x="100" y="200" width="10" height="10" fill="rgb(255, 255, 255)" stroke="#999999" pointer-events="none"/><rect x="100" y="210" width="10" height="10" fill="rgb(255, 255, 255)" stroke="#999999" pointer-events="none"/><rect x="100" y="220" width="10" height="10" fill="rgb(255, 255, 255)" stroke="#999999" pointer-events="none"/><rect x="100" y="230" width="10" height="10" fill="rgb(255, 255, 255)" stroke="#999999" pointer-events="none"/><path d="M 149.81 240 L 149.81 200" fill="none" stroke="#999999" stroke-miterlimit="10" stroke-dasharray="3 3" pointer-events="none"/><path d="M 120 169.81 L 60 169.81" fill="none" stroke="#999999" stroke-miterlimit="10" stroke-dasharray="3 3" pointer-events="none"/><path d="M 140 170 L 160 170" fill="none" stroke="#999999" stroke-miterlimit="10" pointer-events="none"/><path d="M 150 160 L 150 180" fill="none" stroke="#999999" stroke-miterlimit="10" pointer-events="none"/><rect x="50" y="150" width="120" height="100" fill="none" stroke="#999999" pointer-events="none"/><rect x="180" y="40" width="80" height="40" fill="#cccccc" stroke="none" pointer-events="none"/><rect x="180" y="80" width="80" height="60" fill="#fff2cc" stroke="none" pointer-events="none"/><rect x="260" y="80" width="40" height="60" fill="#f5f5f5" stroke="none" pointer-events="none"/><rect x="260" y="40" width="40" height="40" fill="#e1d5e7" stroke="none" pointer-events="none"/><rect x="230" y="90" width="10" height="10" fill="rgb(255, 255, 255)" stroke="#999999" pointer-events="none"/><rect x="230" y="100" width="10" height="10" fill="rgb(255, 255, 255)" stroke="#999999" pointer-events="none"/><rect x="230" y="110" width="10" height="10" fill="rgb(255, 255, 255)" stroke="#999999" pointer-events="none"/><rect x="230" y="120" width="10" height="10" fill="rgb(255, 255, 255)" stroke="#999999" pointer-events="none"/><path d="M 279.81 130 L 279.81 90" fill="none" stroke="#999999" stroke-miterlimit="10" stroke-dasharray="3 3" pointer-events="none"/><path d="M 250 59.81 L 190 59.81" fill="none" stroke="#999999" stroke-miterlimit="10" stroke-dasharray="3 3" pointer-events="none"/><path d="M 270 60 L 290 60" fill="none" stroke="#999999" stroke-miterlimit="10" pointer-events="none"/><path d="M 280 50 L 280 70" fill="none" stroke="#999999" stroke-miterlimit="10" pointer-events="none"/><rect x="180" y="40" width="120" height="100" fill="none" stroke="#999999" pointer-events="none"/><rect x="180" y="150" width="80" height="40" fill="#cccccc" stroke="none" pointer-events="none"/><rect x="180" y="190" width="80" height="60" fill="#fff2cc" stroke="none" pointer-events="none"/><rect x="260" y="190" width="40" height="60" fill="#f5f5f5" stroke="none" pointer-events="none"/><rect x="260" y="150" width="40" height="40" fill="#e1d5e7" stroke="none" pointer-events="none"/><rect x="230" y="200" width="10" height="10" fill="rgb(255, 255, 255)" stroke="#999999" pointer-events="none"/><rect x="230" y="210" width="10" height="10" fill="rgb(255, 255, 255)" stroke="#999999" pointer-events="none"/><rect x="230" y="220" width="10" height="10" fill="rgb(255, 255, 255)" stroke="#999999" pointer-events="none"/><rect x="230" y="230" width="10" height="10" fill="rgb(255, 255, 255)" stroke="#999999" pointer-events="none"/><path d="M 279.81 240 L 279.81 200" fill="none" stroke="#999999" stroke-miterlimit="10" stroke-dasharray="3 3" pointer-events="none"/><path d="M 250 169.81 L 190 169.81" fill="none" stroke="#999999" stroke-miterlimit="10" stroke-dasharray="3 3" pointer-events="none"/><path d="M 270 170 L 290 170" fill="none" stroke="#999999" stroke-miterlimit="10" pointer-events="none"/><path d="M 280 160 L 280 180" fill="none" stroke="#999999" stroke-miterlimit="10" pointer-events="none"/><rect x="180" y="150" width="120" height="100" fill="none" stroke="#999999" pointer-events="none"/><rect x="180" y="260" width="120" height="100" fill="none" stroke="#999999" pointer-events="none"/><rect x="310" y="260" width="120" height="100" fill="none" stroke="#999999" pointer-events="none"/><rect x="50" y="260" width="120" height="100" fill="none" stroke="#999999" pointer-events="none"/><rect x="310" y="150" width="120" height="100" fill="none" stroke="#999999" pointer-events="none"/><rect x="310" y="40" width="120" height="100" fill="none" stroke="#999999" pointer-events="none"/><rect x="0" y="260" width="40" height="100" fill="none" stroke="#999999" pointer-events="none"/><rect x="440" y="260" width="40" height="100" fill="none" stroke="#999999" pointer-events="none"/><rect x="440" y="150" width="40" height="100" fill="none" stroke="#999999" pointer-events="none"/><rect x="440" y="40" width="40" height="100" fill="none" stroke="#999999" pointer-events="none"/><rect x="310" y="0" width="120" height="30" fill="none" stroke="#999999" pointer-events="none"/><rect x="50" y="370" width="120" height="30" fill="none" stroke="#999999" pointer-events="none"/><rect x="180" y="370" width="120" height="30" fill="none" stroke="#999999" pointer-events="none"/><rect x="310" y="370" width="120" height="30" fill="none" stroke="#999999" pointer-events="none"/><rect x="180" y="0" width="120" height="30" fill="none" stroke="#999999" pointer-events="none"/><rect x="50" y="0" width="120" height="30" fill="none" stroke="#999999" pointer-events="none"/><rect x="0" y="150" width="40" height="100" fill="none" stroke="#999999" pointer-events="none"/><rect x="0" y="40" width="40" height="100" fill="none" stroke="#999999" pointer-events="none"/></g></svg>